Coordinates
version=1
nRows=6
nColumns=38
inDegrees=yes

Units are S.I. units (second, meters, Newtons, ...)
Angles are in degrees.

endheader
time	pelvis_tilt	pelvis_list	pelvis_rotation	pelvis_tx	pelvis_ty	pelvis_tz	hip_flexion_r	hip_adduction_r	hip_rotation_r	knee_angle_r	ankle_angle_r	subtalar_angle_r	mtp_angle_r	hip_flexion_l	hip_adduction_l	hip_rotation_l	knee_angle_l	ankle_angle_l	subtalar_angle_l	mtp_angle_l	lumbar_extension	lumbar_bending	lumbar_rotation	arm_flex_r	arm_add_r	arm_rot_r	elbow_flex_r	pro_sup_r	wrist_flex_r	wrist_dev_r	arm_flex_l	arm_add_l	arm_rot_l	elbow_flex_l	pro_sup_l	wrist_flex_l	wrist_dev_l
      1.36000000	     -2.87150421	     -2.17949029	      3.74816918	      0.17764375	      0.94417750	     -0.27332655	     28.25028317	      2.70186498	     -7.02512992	    -26.70319395	      1.43427379	    -10.83878486	      0.00000000	      0.14213095	     -6.56924898	     -6.81763134	    -49.66377259	    -11.34943830	     -2.84042611	      0.00000000	     -0.40673526	      3.30952117	    -10.91024868	     -4.92486065	     -3.79607306	     33.71799292	     22.04055502	     35.75455783	      0.00000000	      0.00000000	      7.47308581	    -12.40922803	     43.27954617	     37.88068783	     35.75455783	      0.00000000	      0.00000000
      1.37000000	     -2.86660433	     -2.48369309	      3.89311832	      0.19007403	      0.94549587	     -0.27114629	     27.57658064	      3.23884162	     -7.03424993	    -26.94626173	      2.15442527	    -11.29215965	      0.00000000	      2.10179565	     -7.80850490	     -7.65481199	    -53.01569572	    -14.21809144	     -4.01301099	      0.00000000	     -0.33922913	      3.46711463	    -10.80108335	     -4.45855056	     -3.67601251	     33.89284789	     21.76436350	     35.85422993	      0.00000000	      0.00000000	      7.07790385	    -12.27760198	     43.12500988	     37.62965611	     35.85422993	      0.00000000	      0.00000000
      1.38000000	     -2.87741279	     -2.70904415	      4.11249125	      0.20236619	      0.94674871	     -0.26928643	     26.87332901	      3.66649006	     -7.06569984	    -27.10776059	      2.91442727	    -11.73628973	      0.00000000	      3.98457939	     -9.02647629	     -8.53072858	    -56.09295282	    -16.09602363	     -5.39347087	      0.00000000	     -0.25549977	      3.53469124	    -10.69306861	     -3.93335662	     -3.64816894	     34.16526868	     21.72217324	     35.95494233	      0.00000000	      0.00000000	      6.82389142	    -12.08640240	     42.97919851	     37.30477799	     35.95494233	      0.00000000	      0.00000000
      1.39000000	     -2.88050257	     -2.83806571	      4.34213740	      0.21442591	      0.94817468	     -0.26776712	     26.10080305	      3.94840743	     -7.13557054	    -27.15507706	      3.68982136	    -11.91128673	      0.00000000	      5.67668982	     -9.69138736	     -8.97405905	    -58.54047805	    -16.88093505	     -8.04977126	      0.00000000	     -0.22114307	      3.51947032	    -10.54590668	     -3.50009211	     -3.71672369	     34.47727088	     21.75524966	     36.05285907	      0.00000000	      0.00000000	      6.62172656	    -11.87022612	     42.86533213	     36.88738828	     36.05285907	      0.00000000	      0.00000000
      1.40000000	     -2.86400144	     -2.59467528	      4.54258304	      0.22643842	      0.94977697	     -0.26668003	     25.31190865	      3.78723229	     -7.18732508	    -27.31820396	      4.69420442	    -11.71068726	      0.00000000	      7.15224338	     -9.39714180	     -8.73571042	    -60.37462661	    -16.16785052	    -11.16746288	      0.00000000	     -0.22326114	      3.10601870	    -10.34936772	     -3.03335810	     -3.83463104	     35.24506910	     21.88057778	     36.26080938	      0.00000000	      0.00000000	      6.57014018	    -11.52439583	     42.71948155	     35.96026106	     36.26080938	      0.00000000	      0.00000000
      1.41000000	     -2.83692457	     -2.37983707	      4.70612085	      0.23830455	      0.95155982	     -0.26564560	     24.43692666	      3.68439731	     -7.16755017	    -27.30233307	      5.53498024	    -11.55295304	      0.00000000	      8.62743164	     -9.01700220	     -8.35096238	    -61.93554261	    -14.57439884	    -13.86758269	      0.00000000	     -0.23192422	      2.73527915	    -10.06226324	     -1.83492600	     -4.28313519	     42.98009160	     20.04899195	     38.64959352	      0.00000000	      0.00000000	      7.40610860	    -10.79599388	     45.62316408	     32.30067739	     38.64959352	      0.00000000	      0.00000000
